<svg width="50" height="51" fill="none" xmlns="http://www.w3.org/2000/svg"><path d="M49.977 15.337V7.29h-6.539V2.774h-6.023v4.517h-9.82a14.623 14.623 0 00-5.596-5.438A14.814 14.814 0 0010.988.505c-.63.18-1.012.831-.854 1.46.18.63.831 1.012 1.46.832a12.437 12.437 0 019.259 1.123 12.336 12.336 0 015.933 7.439c.921 3.191.54 6.562-1.056 9.46a12.275 12.275 0 01-1.64 2.316 12.434 12.434 0 01-5.799 3.618c-3.191.921-6.562.539-9.46-1.056a12.337 12.337 0 01-5.934-7.439 12.35 12.35 0 01.877-9.079l1.326.989c.36.27.651.112.606-.337L5.46 5.763c-.022-.45-.404-.741-.854-.629L.65 6.1c-.45.113-.494.427-.135.697l1.281.944C-.069 11.179-.496 15.157.583 18.932c1.011 3.483 3.19 6.382 6.202 8.338v23.214H50V18.348H29.258c.247-.989.382-2 .427-3.011h20.293zM39.416 4.774h2v6.023h-2V4.774zM20.831 43.45h-6.023v-6.023h6.023v6.023zm0-7.034h-6.023v-6.023h6.023v6.023zm7.034 7.034h-6.023v-6.023h6.023v6.023zm0-7.034h-6.023v-6.023h6.023v6.023zm7.033 7.034h-6.022v-6.023h6.022v6.023zm0-7.034h-6.022v-6.023h6.022v6.023zm1.012-13.057h6.022v6.023H35.91v-6.023zm0 7.034h6.022v6.023H35.91v-6.023zm0 7.034h6.022v6.023H35.91v-6.023zm-1.012-8.045h-6.022v-6.023h6.022v6.023z" fill="#F40F7D"/><path d="M14.043 5.516a.96.96 0 00-.966.966v9.619l8.81 4.54c.134.067.292.112.449.112.36 0 .697-.18.854-.517a.965.965 0 00-.405-1.304l-7.753-4v-8.45c-.022-.516-.45-.966-.989-.966z" fill="#FF0074"/></svg>