<svg width="119" height="102" fill="none" xmlns="http://www.w3.org/2000/svg"><path d="M95.465 69.004c1.861-2.177 3.66-4.417 5.458-6.595 1.861-2.24 3.784-4.418 5.52-6.72.435-.56.869-1.182 1.303-1.742.31-.436.682-.872.992-1.307.434-.684.931-1.307 1.365-1.991.31-.436.62-.81.868-1.245.806-1.306 1.613-2.613 2.357-3.982 1.985-3.671 3.721-7.529 4.652-11.635.186-.934.372-1.805.496-2.738.186-1.307.372-2.613.496-3.92.124-2.24-.186-4.542-.558-6.782-.124-.872-.372-1.805-.558-2.676a21.664 21.664 0 00-1.241-3.547c-.868-1.99-2.046-3.733-3.349-5.413-1.302-1.68-2.853-3.049-4.59-4.293-1.736-1.182-3.659-2.054-5.582-2.8C101.047.808 99.001.436 96.83.187A18.14 18.14 0 0094.287 0c-1.055 0-2.109.062-3.163.187-2.171.31-4.28.684-6.327 1.369-1.922.684-3.845 1.555-5.582 2.675-.93.622-1.799 1.307-2.729 2.053a64.237 64.237 0 00-2.233 1.992 41.453 41.453 0 00-3.845 4.23 52.395 52.395 0 00-5.52 8.65c-.683 1.306-1.24 2.675-1.799 4.044-.124-.311-.31-.622-.434-.933-.496-.934-1.179-1.805-1.86-2.676l-1.862-2.24c-.806-.933-1.612-1.804-2.419-2.738-.62-.684-1.24-1.369-1.922-2.053a31.153 31.153 0 00-4.714-3.858c-1.55-.995-3.163-1.929-4.838-2.675-1.985-.871-3.97-1.68-6.078-2.116-1.179-.249-2.357-.373-3.598-.498a21.967 21.967 0 00-2.853-.186c-2.17 0-4.403.31-6.574.684-1.86.311-3.784.809-5.52 1.556-2.047.87-3.97 1.804-5.83 2.924-1.861 1.12-3.598 2.427-5.272 3.858-1.613 1.431-2.978 3.049-4.28 4.729-1.303 1.742-2.233 3.733-3.04 5.724-.682 1.68-1.24 3.422-1.55 5.227-.372 2.24-.558 4.48-.372 6.72A25.232 25.232 0 001.5 43.058a41.165 41.165 0 005.892 10.578 64.729 64.729 0 004.217 5.04c.62.622 1.24 1.244 1.861 1.804.558.56 1.178 1.12 1.737 1.68l1.302 1.12c.744.622 1.489 1.307 2.295 1.929.62.435 1.179.87 1.799 1.306.496.374.93.747 1.426 1.058.62.436 1.24.81 1.861 1.245 2.109 1.43 4.342 2.737 6.512 4.044 4.714 2.8 9.428 5.725 14.142 8.587 4.466 2.675 8.931 5.289 13.273 8.213 2.233 1.493 4.466 3.111 6.699 4.667 1.116.809 2.294 1.618 3.41 2.426.931.685 1.861 1.37 2.792 1.992.806.497 1.55.995 2.357 1.493.744.435 1.488.809 2.17 1.244 1.551.871 3.536.623 4.776-.622a3.772 3.772 0 00.993-1.742c.062-.311.062-.622.124-.934.434-.56.62-1.244.682-2.053.062-.933.062-1.804.124-2.738.186-1.182.434-2.364.806-3.546.31-1.12.745-2.24 1.24-3.36a86.602 86.602 0 013.288-6.285c.62-1.057 1.303-2.115 1.923-3.11.558-.934 1.24-1.743 1.86-2.614 1.49-1.929 2.916-3.733 4.404-5.476zm-6.574-5.04c-.806 1.058-1.675 2.116-2.481 3.236-.744 1.058-1.55 2.053-2.295 3.111-.744 1.182-1.55 2.364-2.233 3.547-.682 1.182-1.302 2.364-1.985 3.546a35.91 35.91 0 00-1.674 3.485c-.62 1.43-1.303 2.862-1.799 4.355-.434 1.307-.868 2.614-1.116 3.983-.062.186-.062.31-.124.497-.248-.249-.497-.435-.807-.684-.744-.622-1.55-1.182-2.295-1.805a27.165 27.165 0 01-1.55-1.244c-.993-.747-1.985-1.493-3.04-2.178-1.116-.809-2.17-1.618-3.287-2.364-1.116-.747-2.17-1.494-3.287-2.178-2.48-1.493-4.962-2.987-7.505-4.48-1.116-.684-2.295-1.307-3.473-1.929-1.178-.684-2.357-1.369-3.597-1.991-2.11-1.182-4.218-2.427-6.327-3.671-2.233-1.307-4.527-2.551-6.76-3.858-1.179-.684-2.357-1.306-3.474-2.053-1.116-.685-2.233-1.37-3.349-2.116-.868-.622-1.799-1.244-2.667-1.866-.992-.81-2.047-1.618-2.977-2.552l-2.047-1.866a25.935 25.935 0 01-2.233-2.302c-.62-.685-1.24-1.431-1.86-2.178-1.737-2.302-3.226-4.73-4.342-7.342a22.31 22.31 0 01-1.24-4.418c-.125-1.431-.125-2.862.061-4.294.249-1.68.745-3.297 1.365-4.853.62-1.43 1.426-2.8 2.357-4.107 1.24-1.493 2.605-2.862 4.093-4.044a31.408 31.408 0 013.35-2.24c1.178-.684 2.419-1.369 3.66-1.929 2.356-.933 4.899-1.493 7.38-1.867a32.404 32.404 0 016.947 0c2.108.312 4.217.934 6.264 1.743 2.17.933 4.218 2.053 6.078 3.484a97.696 97.696 0 013.846 3.298c.558.498 1.054.933 1.55 1.431.93.871 1.861 1.742 2.667 2.738.807 1.12 1.427 2.302 1.985 3.609.124.373.31.746.434 1.12-.248.809 0 1.804.372 2.489.434.746 1.179 1.306 2.047 1.555a3.226 3.226 0 002.605-.373c.248-.187.434-.373.682-.56.434-.436.683-.933.869-1.493.682-1.867 1.364-3.734 2.108-5.538 1.365-3.111 3.164-6.098 5.21-8.836a42.34 42.34 0 016.389-6.533c1.302-.934 2.605-1.805 4.094-2.427a23.524 23.524 0 015.458-1.43c1.736-.188 3.473-.25 5.21-.063 1.55.249 3.039.684 4.527 1.244 1.365.623 2.667 1.307 3.846 2.178.868.684 1.612 1.493 2.295 2.364.868 1.183 1.55 2.427 2.17 3.796.559 1.493.931 3.111 1.179 4.667.186 1.866.248 3.733.062 5.6-.434 2.986-1.303 5.849-2.419 8.649-.992 2.24-2.171 4.355-3.411 6.47a33.43 33.43 0 01-1.179 1.992c-.31.498-.62.933-.93 1.43-.434.623-.806 1.245-1.241 1.868-.31.497-.744.995-1.054 1.493-.806 1.12-1.675 2.24-2.48 3.36-.125.187-.311.373-.435.56-2.853 3.733-5.52 7.28-8.187 10.764z" fill="#fff"/></svg>