<svg width="90" height="77" fill="none" xmlns="http://www.w3.org/2000/svg"><path d="M17.8 52.092c-1.408-1.645-2.768-3.335-4.129-4.98-1.407-1.69-2.861-3.334-4.174-5.072-.329-.423-.657-.893-.986-1.316-.234-.328-.516-.657-.75-.986-.328-.517-.704-.986-1.032-1.503-.235-.329-.47-.61-.657-.94-.61-.986-1.22-1.972-1.782-3.006-1.501-2.771-2.815-5.683-3.518-8.783C.63 24.8.49 24.143.396 23.439c-.14-.987-.281-1.973-.375-2.96-.094-1.69.14-3.428.422-5.12.094-.657.282-1.361.422-2.02.235-.939.563-1.831.939-2.676.656-1.504 1.548-2.819 2.533-4.087.985-1.268 2.157-2.302 3.47-3.241 1.314-.892 2.768-1.55 4.223-2.114 1.548-.61 3.096-.892 4.737-1.08C17.424.047 18.081 0 18.691 0c.797 0 1.595.047 2.392.14 1.642.236 3.237.518 4.785 1.034 1.454.517 2.908 1.175 4.221 2.02.704.47 1.36.986 2.064 1.55.563.47 1.126.987 1.69 1.503a31.296 31.296 0 012.907 3.194 39.542 39.542 0 014.175 6.53c.516.986.939 2.02 1.36 3.052.095-.234.235-.47.329-.704.375-.705.891-1.362 1.407-2.02l1.407-1.69c.61-.705 1.22-1.363 1.83-2.068.47-.516.938-1.033 1.454-1.55a23.555 23.555 0 013.565-2.912c1.173-.751 2.392-1.456 3.66-2.02 1.5-.657 3.001-1.268 4.596-1.597.891-.188 1.783-.282 2.72-.375.704-.094 1.455-.141 2.159-.141 1.641 0 3.33.234 4.972.516 1.407.235 2.861.61 4.175 1.175 1.548.657 3.002 1.362 4.41 2.207 1.406.846 2.72 1.832 3.986 2.913 1.22 1.08 2.252 2.301 3.237 3.57.985 1.315 1.689 2.818 2.299 4.32.516 1.269.938 2.584 1.172 3.946.282 1.691.422 3.382.282 5.073a19.018 19.018 0 01-1.08 4.838 31.06 31.06 0 01-4.455 7.986 48.88 48.88 0 01-3.19 3.804c-.47.47-.938.94-1.407 1.362-.423.423-.892.846-1.314 1.269l-.985.845c-.563.47-1.126.986-1.736 1.456-.469.329-.89.658-1.36.987-.375.282-.704.563-1.079.798-.469.329-.938.61-1.407.94-1.595 1.08-3.284 2.066-4.925 3.053-3.566 2.114-7.13 4.321-10.696 6.482-3.377 2.02-6.755 3.992-10.038 6.2-1.689 1.127-3.378 2.349-5.066 3.523-.845.61-1.736 1.221-2.58 1.832a58.47 58.47 0 01-2.111 1.503c-.61.376-1.173.752-1.783 1.127-.563.33-1.125.61-1.641.94-1.173.657-2.674.47-3.612-.47a2.845 2.845 0 01-.75-1.315c-.048-.235-.048-.47-.095-.705-.328-.422-.469-.94-.516-1.55-.047-.704-.047-1.362-.094-2.067a18.333 18.333 0 00-.61-2.677c-.234-.846-.562-1.691-.938-2.537a65.348 65.348 0 00-2.486-4.744c-.469-.798-.985-1.597-1.454-2.348-.422-.705-.938-1.315-1.407-1.973a106.24 106.24 0 00-3.33-4.133zm4.972-3.805c.61.798 1.266 1.597 1.876 2.442.563.799 1.173 1.55 1.736 2.349.563.892 1.172 1.785 1.688 2.677.516.893.985 1.785 1.501 2.678.47.845.892 1.738 1.267 2.63.469 1.08.985 2.16 1.36 3.288.329.987.657 1.973.845 3.006.047.141.047.235.093.376.188-.188.376-.329.61-.517.563-.47 1.173-.892 1.736-1.362.375-.282.797-.61 1.173-.94.75-.563 1.5-1.127 2.298-1.643.845-.61 1.642-1.221 2.486-1.785.845-.564 1.642-1.127 2.486-1.644 1.877-1.127 3.753-2.255 5.676-3.382.845-.517 1.736-.986 2.627-1.456.892-.517 1.783-1.034 2.721-1.503a250.59 250.59 0 004.785-2.772c1.688-.986 3.424-1.925 5.113-2.912.891-.517 1.782-.986 2.627-1.55.844-.517 1.688-1.033 2.533-1.597.656-.47 1.36-.94 2.017-1.41.75-.61 1.548-1.22 2.251-1.925l1.548-1.41a19.6 19.6 0 001.689-1.737c.47-.517.938-1.08 1.407-1.644 1.314-1.738 2.44-3.57 3.284-5.543.422-1.08.75-2.207.938-3.335.094-1.08.094-2.16-.047-3.24-.188-1.269-.563-2.49-1.032-3.665a17.078 17.078 0 00-1.782-3.1 21.129 21.129 0 00-3.096-3.053 23.76 23.76 0 00-2.533-1.69c-.892-.518-1.83-1.034-2.768-1.457-1.782-.704-3.706-1.127-5.582-1.41a24.557 24.557 0 00-5.254 0c-1.595.236-3.19.706-4.738 1.316-1.642.705-3.19 1.55-4.597 2.63a73.816 73.816 0 00-2.908 2.49c-.422.376-.797.705-1.173 1.08-.703.658-1.407 1.316-2.017 2.067-.61.846-1.079 1.738-1.5 2.724-.095.282-.235.564-.33.846.188.61 0 1.362-.28 1.879-.33.564-.892.986-1.549 1.174a2.444 2.444 0 01-1.97-.282c-.188-.14-.328-.282-.516-.422-.328-.33-.516-.705-.657-1.128-.516-1.409-1.032-2.818-1.595-4.18-1.032-2.349-2.392-4.604-3.94-6.67a31.99 31.99 0 00-4.831-4.932c-.986-.705-1.97-1.362-3.096-1.832a17.817 17.817 0 00-4.128-1.08c-1.314-.141-2.627-.188-3.94-.047-1.173.187-2.3.516-3.425.939-1.032.47-2.017.986-2.908 1.644-.657.517-1.22 1.127-1.736 1.785-.657.892-1.173 1.832-1.642 2.865-.422 1.127-.703 2.349-.891 3.523-.14 1.41-.188 2.818-.047 4.227.328 2.255.985 4.416 1.83 6.53.75 1.69 1.641 3.288 2.58 4.885.281.516.562.986.89 1.503.235.376.47.704.704 1.08.329.47.61.94.939 1.41.234.375.563.75.797 1.127.61.845 1.267 1.69 1.876 2.536.094.14.235.282.329.423 2.158 2.818 4.175 5.495 6.192 8.126z" fill="#fff"/></svg>