<svg width="80" height="75" fill="none" xmlns="http://www.w3.org/2000/svg"><path d="M73.4 11.698c-1.98-.128-3.96-.128-6.005-.128-3.449-.638-6.642-2.107-9.9-3.768-4.28-2.108-8.687-4.024-13.285-5.43C36.416.074 27.282-2.034 20.448 3.587c-5.302 4.344-7.09 12.966-.447 17.118 2.746 1.725 6.387 1.98 9.07 0 2.363-1.66 3.576-4.918 2.235-7.6-1.341-2.747-5.11-3.705-7.345-1.406-1.086 1.15-1.47 2.747-.83 4.216.51 1.213 1.596 2.682 2.938 1.341.574-.575.702-1.533.319-2.235-.192-.448-.639-.83-.447-1.342.064-.128.128-.255.255-.383 1.47-1.341 3.513.383 3.322 2.044.191 1.405-.064 2.363-1.214 3.449-1.469 1.405-3.64 1.597-5.557 1.086-4.343-1.15-6.196-5.813-4.982-9.9 1.214-3.641 4.663-6.516 8.176-7.793 3.513-1.341 7.345-.83 10.986-.256 6.898 1.086 13.477 3.258 19.737 6.388 2.427 1.213 4.982 2.427 7.537 3.321-1.15 0-2.236 0-3.386-.064-4.024-.191-7.984-.894-12.008-1.213-3.768-.32-12.902.128-12.136 6.068.511 3.768 6.068 5.237 8.176 1.916.703-1.15.511-2.555-.32-3.577-.766-.894-2.043-1.405-2.937-.32-.128.192-.256.448-.256.703 0 .383.383.639.767.83.383.128.766.192 1.086.32.319.192.638.575.51.894-.063.128-.127.256-.255.383-.958 1.15-3.194 1.533-4.216.192-.83-1.022-.83-2.746 0-3.705 1.278-1.533 3.577-1.98 5.493-2.107 3.066-.192 6.196.51 9.262.958 1.086.127 2.236.319 3.385.447l-.064.064c-1.596 2.107.895 5.046 2.939 3.193.255-.191.127-.575-.064-.702-.703-.511-2.108-.511-.447-1.916.255-.192.702-.32 1.213-.32 4.28.32 8.623.256 12.647-.703.703-.255.447-1.213-.192-1.277zM75.89 11.251c-.574 0-1.085.51-1.085 1.086 0 .575.447 1.086 1.085 1.086.575 0 1.086-.511 1.086-1.086-.064-.575-.51-1.086-1.085-1.086zM78.637 11.506c-1.086 0-1.086 1.661 0 1.661 1.022 0 1.022-1.66 0-1.66z" fill="#fff"/><path d="M11.698 68.737c-.128-1.98-.128-3.96-.128-6.004-.638-3.45-2.107-6.643-3.768-9.9-2.108-4.28-4.024-8.687-5.43-13.286C.074 31.754-2.034 22.62 3.587 15.786c4.344-5.301 12.966-7.09 17.118-.447 1.725 2.746 1.98 6.387 0 9.07-1.66 2.363-4.918 3.577-7.6 2.235-2.747-1.341-3.705-5.11-1.406-7.345 1.15-1.086 2.747-1.47 4.216-.83 1.213.51 2.682 1.596 1.341 2.938-.575.575-1.533.702-2.235.32-.448-.192-.83-.64-1.342-.448-.128.064-.255.128-.383.256-1.341 1.469.383 3.512 2.044 3.32 1.405.192 2.363-.063 3.449-1.213 1.405-1.469 1.597-3.64 1.086-5.557-1.15-4.343-5.813-6.195-9.9-4.982-3.641 1.214-6.516 4.663-7.793 8.176-1.341 3.513-.83 7.345-.256 10.986 1.086 6.898 3.258 13.477 6.388 19.737 1.213 2.427 2.427 4.982 3.321 7.537 0-1.15 0-2.236-.064-3.385-.191-4.024-.894-7.984-1.213-12.008-.32-3.769.128-12.903 6.068-12.136 3.768.51 5.237 6.068 1.916 8.175-1.15.703-2.555.511-3.577-.319-.894-.766-1.405-2.044-.32-2.938.192-.128.448-.256.703-.256.383 0 .639.384.83.767.128.383.192.766.32 1.086.192.32.575.639.894.51.128-.063.256-.127.383-.255 1.15-.958 1.533-3.193.192-4.215-1.022-.83-2.746-.83-3.705 0-1.533 1.277-1.98 3.577-2.107 5.493-.192 3.066.51 6.195.958 9.261.127 1.086.319 2.236.447 3.386l.064-.064c2.107-1.597 5.046.894 3.193 2.938-.191.255-.575.128-.702-.064-.511-.703-.511-2.108-1.916-.447-.192.255-.32.703-.32 1.214.32 4.279.256 8.622-.703 12.646-.255.703-1.213.511-1.277-.191zM11.251 71.228c0-.575.511-1.086 1.086-1.086.575 0 1.086.447 1.086 1.086 0 .575-.511 1.086-1.086 1.086-.639-.064-1.086-.511-1.086-1.086zM11.443 73.974c0-1.086 1.66-1.086 1.66 0 0 1.022-1.66 1.086-1.66 0z" fill="#fff"/></svg>