<svg width="106" height="98"  viewBox="0 0 106 98" fill="none" xmlns="http://www.w3.org/2000/svg"><path d="M53.125 11.35C59.189 4.038 66.168.382 74.06.382 82.035.383 89.18 3 95.494 8.234c3.074 2.492 5.524 5.857 7.352 10.094 1.911 4.237 2.866 8.515 2.866 12.835 0 10.634-3.115 20.188-9.346 28.662-3.655 4.901-7.601 9.263-11.838 13.084-4.154 3.739-6.73 5.982-7.726 6.73-.914.664-2.7 2.077-5.359 4.237-6.064 5.233-9.97 8.515-11.714 9.844l-4.984 3.863H51.38l-5.234-3.863-11.59-9.844-6.23-4.985-6.48-5.608c-4.403-3.987-8.1-7.975-11.09-11.963-2.908-3.987-4.944-7.31-6.107-9.97C1.742 44.87.288 38.6.288 32.535c0-10.135 3.406-18.235 10.218-24.3C16.488 3 24.048.384 33.186.384c7.81 0 14.456 3.655 19.939 10.965zm40.749 7.85c-2.326-3.738-5.234-6.438-8.723-8.1-3.406-1.661-7.311-2.492-11.714-2.492-4.32 0-8.474 1.62-12.462 4.86-3.904 3.24-6.563 6.895-7.975 10.966-1.33-4.07-3.946-7.726-7.85-10.966-3.822-3.24-7.976-4.86-12.462-4.86-4.403 0-8.35.83-11.839 2.492-3.489 1.662-6.438 4.362-8.847 8.1-2.327 3.656-3.49 7.976-3.49 12.96 0 4.902.914 9.596 2.742 14.082 1.91 4.403 4.278 8.266 7.103 11.589 5.982 6.895 12.752 13.168 20.312 18.817 7.56 5.65 12.171 9.886 13.833 12.71h.996c1.662-2.824 6.356-7.102 14.082-12.835 7.726-5.815 14.414-12.046 20.063-18.692 2.825-3.323 5.15-7.186 6.979-11.59a35.573 35.573 0 002.866-14.08c0-4.985-1.205-9.305-3.614-12.96z" fill="#fff"/></svg>
